<svg width="203" height="60" viewBox="0 0 203 60" fill="none" xmlns="http://www.w3.org/2000/svg">
<path d="M201.103 52.9161C201.103 56.0913 198.531 58.6624 195.35 58.6624H7.09531C3.9161 58.6624 1.33533 56.0905 1.33533 52.9161V7.08976C1.33533 3.91623 3.9161 1.33545 7.09531 1.33545H195.349C198.531 1.33545 201.101 3.91623 201.101 7.08976L201.103 52.9161Z" fill="white"/>
<path d="M195.35 60H7.09531C3.18406 60 0 56.8232 0 52.916V7.09126C0 3.18082 3.18406 0 7.09531 0H195.349C199.256 0 202.444 3.18082 202.444 7.09126V52.9168C202.447 56.8232 199.258 60 195.35 60Z" fill="#FF715B"/>
<path d="M201.103 52.9161C201.103 56.0913 198.531 58.6624 195.35 58.6624H7.09531C3.9161 58.6624 1.33533 56.0905 1.33533 52.9161V7.08976C1.33533 3.91623 3.9161 1.33545 7.09531 1.33545H195.349C198.531 1.33545 201.101 3.91623 201.101 7.08976L201.103 52.9161Z" fill="#FF715B"/>
<path d="M45.2045 29.6842C45.1607 24.8482 49.1643 22.4957 49.3473 22.3864C47.0799 19.0809 43.5663 18.629 42.3314 18.5934C39.3797 18.2825 36.5171 20.3595 35.0142 20.3595C33.4804 20.3595 31.1653 18.6234 28.6703 18.6744C25.4595 18.7238 22.4561 20.583 20.8082 23.4699C17.4087 29.3562 19.9441 38.0055 23.2011 42.7638C24.8303 45.0951 26.7341 47.6954 29.2267 47.6039C31.6649 47.5051 32.5759 46.0507 35.5179 46.0507C38.4331 46.0507 39.2882 47.6039 41.8301 47.5447C44.4473 47.5042 46.0944 45.2045 47.667 42.8529C49.5498 40.1838 50.3061 37.552 50.3361 37.4168C50.2753 37.3965 45.2555 35.479 45.2045 29.6842ZM40.4033 15.4628C41.7143 13.823 42.6115 11.592 42.3629 9.32788C40.4648 9.4121 38.0913 10.6405 36.7244 12.2447C35.5154 13.6578 34.4352 15.9746 34.7137 18.1537C36.8459 18.3124 39.0347 17.0775 40.4033 15.4628Z" fill="white"/>
<path d="M80.5191 47.2687H77.1115L75.2449 41.4035H68.757L66.9787 47.2687H63.661L70.0899 27.3011H74.0602L80.5191 47.2687ZM74.683 38.9433L72.9954 33.7292C72.8172 33.1963 72.4803 31.942 71.9888 29.9677H71.9289C71.7305 30.8172 71.4139 32.0715 70.9806 33.7292L69.3214 38.9433H74.683ZM97.0208 39.8932C97.0208 42.342 96.356 44.2774 95.0255 45.6986C93.8343 46.9634 92.3532 47.5951 90.5871 47.5951C88.68 47.5951 87.3091 46.9148 86.4758 45.5528V53.1072H83.2772V37.6032C83.2772 36.0654 83.2367 34.4879 83.1589 32.8708H85.9721L86.1503 35.1528H86.2102C87.2767 33.4336 88.8962 32.5736 91.0689 32.5736C92.767 32.5736 94.1849 33.2441 95.3194 34.5875C96.4523 35.9334 97.0208 37.7011 97.0208 39.8932ZM93.7622 40.0098C93.7622 38.6081 93.4472 37.4533 92.814 36.5423C92.1224 35.5957 91.1936 35.122 90.0291 35.122C89.2396 35.122 88.5229 35.386 87.8824 35.9067C87.2402 36.4322 86.82 37.1173 86.624 37.9667C86.5252 38.3627 86.4758 38.6858 86.4758 38.9409V41.3427C86.4758 42.3882 86.7973 43.2724 87.4395 43.9956C88.0816 44.7155 88.9157 45.0774 89.9425 45.0774C91.1474 45.0774 92.0852 44.611 92.7557 43.6854C93.4262 42.7558 93.7622 41.5314 93.7622 40.0098ZM113.581 39.8932C113.581 42.342 112.916 44.2774 111.586 45.6986C110.393 46.9634 108.913 47.5951 107.146 47.5951C105.238 47.5951 103.868 46.9148 103.034 45.5528V53.1072H99.8356V37.6032C99.8356 36.0654 99.7951 34.4879 99.7174 32.8708H102.531L102.709 35.1528H102.769C103.834 33.4336 105.453 32.5736 107.627 32.5736C109.324 32.5736 110.742 33.2441 111.879 34.5875C113.011 35.9334 113.581 37.7011 113.581 39.8932ZM110.321 40.0098C110.321 38.6081 110.004 37.4533 109.371 36.5423C108.679 35.5957 107.754 35.122 106.589 35.122C105.8 35.122 105.083 35.386 104.439 35.9067C103.797 36.4322 103.378 37.1173 103.182 37.9667C103.084 38.3627 103.032 38.6858 103.032 38.9409V41.3427C103.032 42.3882 103.354 43.2724 103.994 43.9956C104.636 44.7147 105.47 45.0774 106.499 45.0774C107.706 45.0774 108.644 44.611 109.312 43.6854C109.985 42.7558 110.321 41.5314 110.321 40.0098ZM132.096 41.6683C132.096 43.368 131.501 44.7503 130.321 45.8168C129.021 46.9812 127.207 47.5651 124.881 47.5651C122.733 47.5651 121.011 47.1513 119.711 46.3213L120.45 43.6547C121.853 44.4855 123.394 44.9001 125.072 44.9001C126.278 44.9001 127.216 44.6272 127.885 44.0855C128.555 43.5421 128.895 42.8157 128.895 41.9096C128.895 41.0982 128.614 40.418 128.064 39.8649C127.51 39.3126 126.595 38.7984 125.309 38.3255C121.813 37.0217 120.063 35.1147 120.063 32.606C120.063 30.9678 120.681 29.626 121.915 28.5773C123.148 27.5303 124.784 27.0063 126.818 27.0063C128.635 27.0063 130.149 27.323 131.351 27.9546L130.548 30.5621C129.417 29.9499 128.14 29.6438 126.711 29.6438C125.583 29.6438 124.698 29.9216 124.065 30.4738C123.532 30.9678 123.263 31.5695 123.263 32.2837C123.263 33.0716 123.57 33.7259 124.183 34.2385C124.714 34.7106 125.683 35.2256 127.084 35.7779C128.803 36.4711 130.066 37.2784 130.875 38.2056C131.691 39.132 132.096 40.2892 132.096 41.6683ZM142.699 35.2718H139.173V42.2618C139.173 44.0401 139.794 44.9268 141.04 44.9268C141.611 44.9268 142.085 44.879 142.461 44.7786L142.549 47.208C141.919 47.4436 141.089 47.5619 140.062 47.5619C138.798 47.5619 137.811 47.1764 137.099 46.4047C136.389 45.6338 136.032 44.3414 136.032 42.5234V35.2661H133.931V32.8651H136.032V30.2293L139.174 29.281V32.8651H142.7V35.2718H142.699ZM158.576 39.9515C158.576 42.1647 157.943 43.9818 156.68 45.4022C155.358 46.8654 153.599 47.5942 151.407 47.5942C149.291 47.5942 147.61 46.8938 146.355 45.4937C145.101 44.0903 144.474 42.3234 144.474 40.1912C144.474 37.9603 145.122 36.1326 146.414 34.7114C147.709 33.2886 149.453 32.5776 151.645 32.5776C153.757 32.5776 155.455 33.2797 156.738 34.6815C157.966 36.0411 158.576 37.7967 158.576 39.9515ZM155.26 40.0252C155.26 38.7061 154.975 37.5748 154.404 36.6282C153.733 35.4848 152.773 34.9131 151.529 34.9131C150.248 34.9131 149.265 35.4848 148.596 36.6282C148.022 37.5748 147.737 38.7255 147.737 40.0851C147.737 41.4059 148.022 42.5396 148.596 43.4838C149.287 44.6272 150.253 45.1989 151.502 45.1989C152.725 45.1989 153.684 44.6151 154.377 43.4555C154.965 42.4853 155.26 41.3468 155.26 40.0252ZM168.979 35.684C168.662 35.6257 168.323 35.5957 167.971 35.5957C166.845 35.5957 165.975 36.0192 165.363 36.8711C164.832 37.621 164.565 38.5692 164.565 39.7143V47.2687H161.366V37.4056C161.366 35.7479 161.335 34.2353 161.273 32.8732H164.059L164.177 35.6281H164.265C164.604 34.6815 165.136 33.9178 165.864 33.3461C166.577 32.8319 167.346 32.5752 168.176 32.5752C168.472 32.5752 168.739 32.5963 168.976 32.6335L168.979 35.684ZM183.285 39.3887C183.285 39.9621 183.248 40.4447 183.168 40.8399H173.571C173.607 42.2626 174.072 43.3518 174.963 44.1017C175.772 44.7713 176.818 45.1066 178.102 45.1066C179.523 45.1066 180.819 44.8815 181.985 44.4272L182.486 46.646C181.124 47.2404 179.515 47.5359 177.659 47.5359C175.426 47.5359 173.674 46.8784 172.399 45.5674C171.126 44.2547 170.488 42.4902 170.488 40.2803C170.488 38.1109 171.081 36.3026 172.267 34.8604C173.51 33.321 175.189 32.5509 177.301 32.5509C179.376 32.5509 180.947 33.321 182.014 34.8604C182.861 36.0808 183.285 37.5926 183.285 39.3887ZM180.235 38.5587C180.257 37.6088 180.047 36.7909 179.614 36.0994C179.06 35.2078 178.208 34.7641 177.066 34.7641C176.021 34.7641 175.168 35.1973 174.52 36.0678C173.987 36.7594 173.671 37.591 173.574 38.5555L180.235 38.5587Z" fill="white"/>
<path d="M73.1403 20.1546H71.4641L70.5474 17.2726H67.3593L66.4847 20.1546H64.8538L68.0136 10.34H69.9644L73.1403 20.1546ZM70.2713 16.0635L69.4412 13.5006C69.3546 13.2382 69.1934 12.6276 68.9465 11.6519H68.9165C68.8145 12.0738 68.6687 12.6859 68.4501 13.5006L67.6354 16.0635H70.2713ZM81.0414 13.0787L78.3618 20.1546H76.8329L74.24 13.0787H75.9292L77.1382 16.8207C77.3423 17.4467 77.5164 18.0435 77.6468 18.6103H77.6905C77.8079 18.1018 77.9812 17.5042 78.199 16.8207L79.3935 13.0787H81.0414ZM86.7463 20.1546L86.6289 19.3399H86.5851C86.1049 19.9959 85.4061 20.3149 84.5178 20.3149C83.2513 20.3149 82.3484 19.4266 82.3484 18.2321C82.3484 16.4854 83.8626 15.5825 86.4831 15.5825V15.4522C86.4831 14.5201 85.9883 14.0537 85.0125 14.0537C84.3129 14.0537 83.7015 14.2294 83.1638 14.5784L82.8439 13.5443C83.4999 13.1362 84.3145 12.9321 85.2757 12.9321C87.1244 12.9321 88.0573 13.9071 88.0573 15.8595V18.4654C88.0573 19.1796 88.0873 19.7335 88.1594 20.1546H86.7463ZM86.5268 16.6304C84.7793 16.6304 83.9056 17.0539 83.9056 18.0572C83.9056 18.7998 84.3574 19.1634 84.9826 19.1634C85.7834 19.1634 86.5268 18.5528 86.5268 17.7228V16.6304ZM91.5604 11.9134C91.0365 11.9134 90.6284 11.5053 90.6284 10.9668C90.6284 10.4283 91.0503 10.0347 91.5904 10.0347C92.1289 10.0347 92.5654 10.4275 92.5508 10.9668C92.5516 11.5352 92.1443 11.9134 91.5604 11.9134ZM92.3767 20.1546H90.8041V13.0787H92.3767V20.1546ZM96.743 20.1546H95.1704V9.83228H96.743V20.1546ZM103.426 20.1546L103.309 19.3399H103.265C102.785 19.9959 102.086 20.3149 101.198 20.3149C99.9311 20.3149 99.0282 19.4266 99.0282 18.2321C99.0282 16.4854 100.542 15.5825 103.163 15.5825V15.4522C103.163 14.5201 102.668 14.0537 101.692 14.0537C100.994 14.0537 100.381 14.2294 99.8437 14.5784L99.523 13.5435C100.179 13.1354 100.994 12.9313 101.955 12.9313C103.804 12.9313 104.736 13.9063 104.736 15.8587V18.4646C104.736 19.1788 104.768 19.7327 104.837 20.1538L103.426 20.1546ZM103.207 16.6304C101.458 16.6304 100.585 17.0539 100.585 18.0572C100.585 18.7998 101.037 19.1634 101.662 19.1634C102.463 19.1634 103.207 18.5528 103.207 17.7228V16.6304ZM111.109 20.3157C110.104 20.3157 109.363 19.8922 108.883 19.063H108.852L108.762 20.1554H107.422C107.465 19.5885 107.48 18.9464 107.48 18.2483V9.83228H109.054V14.1144H109.084C109.551 13.3281 110.305 12.9354 111.341 12.9354C113.046 12.9354 114.24 14.3922 114.24 16.517C114.239 18.7132 112.913 20.3157 111.109 20.3157ZM110.789 14.1695C109.884 14.1695 109.056 14.9558 109.056 16.0482V17.2863C109.056 18.2613 109.8 19.063 110.762 19.063C111.939 19.063 112.641 18.1026 112.641 16.5737C112.638 15.1469 111.909 14.1695 110.789 14.1695ZM118.136 20.1546H116.565V9.83228H118.136V20.1546ZM126.696 16.9948H121.976C122.007 18.335 122.893 19.0905 124.204 19.0905C124.902 19.0905 125.544 18.9731 126.111 18.7561L126.355 19.8485C125.686 20.1392 124.9 20.2849 123.983 20.2849C121.769 20.2849 120.459 18.8865 120.459 16.7187C120.459 14.5493 121.801 12.9184 123.807 12.9184C125.612 12.9184 126.749 14.2585 126.749 16.2822C126.754 16.5583 126.741 16.8061 126.696 16.9948ZM125.254 15.8741C125.254 14.7817 124.7 14.0108 123.695 14.0108C122.791 14.0108 122.08 14.797 121.976 15.8741H125.254ZM136.226 20.3157C134.159 20.3157 132.819 18.7715 132.819 16.6757C132.819 14.491 134.187 12.9337 136.345 12.9337C138.38 12.9337 139.752 14.4043 139.752 16.5599C139.752 18.7715 138.339 20.3157 136.226 20.3157ZM136.286 14.0828C135.15 14.0828 134.423 15.1453 134.423 16.6304C134.423 18.0872 135.166 19.1496 136.272 19.1496C137.378 19.1496 138.119 18.0135 138.119 16.6004C138.12 15.1598 137.392 14.0828 136.286 14.0828ZM148.206 20.1546H146.635V16.0911C146.635 14.84 146.154 14.2124 145.208 14.2124C144.276 14.2124 143.633 15.0133 143.633 15.9453V20.1538H142.062V15.1007C142.062 14.4748 142.046 13.8043 142.004 13.0771H143.387L143.461 14.1695H143.505C143.925 13.4131 144.786 12.9313 145.746 12.9313C147.23 12.9313 148.206 14.0674 148.206 15.9154V20.1546ZM158.494 14.2585H156.764V17.6944C156.764 18.569 157.069 19.0055 157.679 19.0055C157.957 19.0055 158.191 18.9755 158.378 18.9318L158.422 20.1262C158.116 20.2436 157.706 20.3019 157.201 20.3019C155.962 20.3019 155.221 19.6177 155.221 17.8264V14.2585H154.189V13.0795H155.221V11.7822L156.764 11.3158V13.0771H158.494V14.2585ZM166.822 20.1546H165.247V16.1219C165.247 14.8554 164.767 14.2148 163.821 14.2148C163.006 14.2148 162.25 14.7687 162.25 15.8894V20.1554H160.675V9.83228H162.25V14.0828H162.28C162.774 13.3119 163.489 12.9321 164.405 12.9321C165.904 12.9321 166.821 14.0966 166.821 15.9461V20.1546H166.822ZM174.856 16.9948H170.138C170.168 18.335 171.053 19.0905 172.365 19.0905C173.065 19.0905 173.704 18.9731 174.272 18.7561L174.518 19.8485C173.848 20.1392 173.061 20.2849 172.144 20.2849C169.93 20.2849 168.62 18.8865 168.62 16.7187C168.62 14.5493 169.962 12.9184 171.968 12.9184C173.773 12.9184 174.91 14.2585 174.91 16.2822C174.915 16.5583 174.899 16.8061 174.856 16.9948ZM173.414 15.8741C173.414 14.7817 172.862 14.0108 171.857 14.0108C170.952 14.0108 170.24 14.797 170.138 15.8741H173.414Z" fill="white"/>
</svg>
